<?xml version="1.0" standalone="no"?>
<!DOCTYPE svg PUBLIC "-//W3C//DTD SVG 20010904//EN"
 "http://www.w3.org/TR/2001/REC-SVG-20010904/DTD/svg10.dtd">
<svg version="1.0" xmlns="http://www.w3.org/2000/svg"
 width="700.000000pt" height="700.000000pt" viewBox="0 0 700.000000 700.000000"
 preserveAspectRatio="xMidYMid meet">
<metadata>
Created by potrace 1.11, written by Peter Selinger 2001-2013
</metadata>
<g transform="translate(0.000000,700.000000) scale(0.100000,-0.100000)"
fill="#000000" stroke="none">
<path d="M2728 6995 c-1 -2 -41 -6 -88 -9 -281 -18 -582 -88 -825 -192 -233
-99 -404 -213 -565 -374 -261 -262 -403 -566 -447 -955 -12 -114 -5 -361 13
-449 3 -12 7 -39 10 -61 20 -132 99 -353 190 -531 52 -103 221 -377 243 -394
3 -3 33 -41 65 -85 33 -44 80 -104 105 -134 38 -44 43 -55 31 -63 -8 -5 -51
-29 -95 -54 -44 -25 -99 -57 -123 -71 -55 -31 -245 -160 -338 -229 -119 -87
-213 -170 -344 -303 -291 -294 -459 -591 -531 -933 -35 -167 -32 -482 6 -658
3 -14 8 -38 11 -55 11 -62 84 -266 124 -346 221 -440 635 -756 1220 -932 102
-31 292 -77 375 -91 99 -17 260 -39 365 -51 238 -26 757 -26 945 0 31 4 118
16 145 20 90 14 175 31 275 56 158 40 491 153 505 171 3 3 18 10 33 14 35 8
269 126 367 185 l72 42 21 -24 c40 -46 173 -156 251 -209 178 -120 429 -220
641 -256 117 -19 417 -26 545 -11 54 6 207 38 245 51 6 1 24 6 40 11 81 21
273 106 358 157 210 128 365 291 409 430 32 103 19 237 -27 288 -9 10 -38 29
-63 41 -40 18 -68 22 -187 25 -321 9 -304 7 -407 57 -163 81 -362 242 -630
511 l-78 79 21 36 c12 20 40 68 61 106 21 39 46 81 54 95 48 81 187 378 244
520 22 58 45 114 50 125 26 55 126 374 165 525 28 110 84 389 100 503 3 20 7
54 10 75 3 20 8 57 11 82 3 25 7 55 9 68 2 12 7 69 10 125 4 56 8 122 10 147
9 106 6 339 -5 385 -58 251 -405 392 -736 299 -159 -45 -268 -139 -312 -268
-16 -48 -20 -90 -22 -239 -1 -100 -3 -202 -5 -227 -2 -25 -6 -85 -10 -135 -3
-49 -8 -99 -10 -110 -2 -11 -7 -53 -10 -94 -3 -41 -7 -77 -9 -80 -2 -3 -7 -31
-10 -61 -11 -99 -66 -389 -86 -455 -5 -16 -11 -42 -14 -56 -13 -79 -139 -476
-188 -597 l-22 -53 -74 78 c-41 43 -158 165 -261 272 -102 107 -202 211 -221
231 -60 63 -421 438 -508 529 -232 241 -357 373 -360 380 -1 4 17 14 40 22 24
7 64 24 90 36 27 13 50 23 53 23 9 0 212 102 290 145 69 38 295 187 318 209 7
7 22 19 34 27 51 35 162 141 237 225 265 297 389 618 380 989 -3 130 -9 182
-39 314 -26 112 -106 285 -192 415 -78 118 -229 272 -351 359 -246 176 -589
298 -962 342 -30 4 -68 9 -85 11 -36 6 -552 14 -557 9z m286 -614 c160 -37
286 -165 346 -351 63 -197 81 -504 40 -695 -5 -22 -11 -54 -14 -71 -10 -56
-76 -235 -116 -315 -38 -75 -122 -204 -171 -265 -36 -44 -188 -194 -197 -194
-10 0 -49 43 -109 120 -46 60 -133 187 -133 195 0 2 -15 29 -33 62 -143 253
-218 562 -212 878 1 88 5 169 8 180 3 11 10 40 16 65 43 166 138 302 251 360
89 45 210 57 324 31z m-696 -3550 c42 -46 93 -101 112 -121 19 -21 78 -84 130
-141 52 -56 109 -117 125 -135 75 -80 221 -239 235 -254 13 -15 171 -186 255
-275 17 -18 71 -77 120 -130 50 -54 101 -110 115 -125 14 -15 72 -78 130 -141
58 -62 130 -141 161 -174 96 -103 184 -198 227 -246 l42 -46 -67 -53 c-162
-130 -413 -255 -613 -306 -387 -98 -753 -49 -1033 138 -234 157 -405 451 -442
763 -4 28 -8 66 -11 85 -6 50 -5 263 1 345 25 322 149 710 307 958 l31 48 49
-53 c27 -29 84 -91 126 -137z"/>
</g>
</svg>
