<svg xmlns="http://www.w3.org/2000/svg" xmlns:xlink="http://www.w3.org/1999/xlink" width="98" height="98" viewBox="0 0 98 98">
    <defs>
        <rect id="b" width="90" height="90" rx="6"/>
        <filter id="a" width="115.6%" height="115.6%" x="-7.8%" y="-5.6%" filterUnits="objectBoundingBox">
            <feOffset dy="2" in="SourceAlpha" result="shadowOffsetOuter1"/>
            <feMorphology in="SourceAlpha" radius="1" result="shadowInner"/>
            <feOffset dy="2" in="shadowInner" result="shadowInner"/>
            <feComposite in="shadowOffsetOuter1" in2="shadowInner" operator="out" result="shadowOffsetOuter1"/>
            <feGaussianBlur in="shadowOffsetOuter1" result="shadowBlurOuter1" stdDeviation="2"/>
            <feColorMatrix in="shadowBlurOuter1" values="0 0 0 0 0.901960784 0 0 0 0 0.925490196 0 0 0 0 0.952941176 0 0 0 0.472792832 0"/>
        </filter>
    </defs>
    <g fill="none" fill-rule="evenodd">
        <g fill="#E6ECF3" stroke="#2553A8" stroke-width=".8">
            <path d="M21.4 21.386V58.6h55.2V21.38c-1.317-.065-2.484-.058-3.5.019l-1.656.126C53.81 22.878 53.064 22.93 49 22.93c-4.577 0-5.344-.053-24.34-1.53-.715-.056-1.804-.06-3.26-.013z"/>
            <path d="M38 58.547h4.522V21.299c-1.157.548-1.92.822-2.287.822-1.337 0-2.235-.677-2.235-.677v37.103zM56 58.567h4.118L60 21.47c-.81.435-1.397.652-1.765.652-1.337 0-2.357-.822-2.357-.822L56 58.567z"/>
            <path d="M24.4 21.006V58.6h13.607V21.462C36.63 20.095 34.37 19.4 31.203 19.4c-3.154 0-5.422.544-6.803 1.606zM59.993 21.564V58.6H73.6V21.006c-1.381-1.062-3.649-1.606-6.803-1.606-3.168 0-5.429.729-6.804 2.164zM42.4 21.197V58.6h13.607V21.197c-1.378-1.19-3.643-1.797-6.804-1.797-3.16 0-5.425.607-6.803 1.797z"/>
        </g>
        <g transform="translate(4 2)">
            <use fill="#000" filter="url(#a)" xlink:href="#b"/>
            <rect width="89" height="89" x=".5" y=".5" stroke="#2553A8" stroke-linejoin="square" rx="6"/>
        </g>
    </g>
</svg>
