<svg xmlns="http://www.w3.org/2000/svg" xmlns:xlink="http://www.w3.org/1999/xlink" width="98" height="98" viewBox="0 0 98 98">
    <defs>
        <rect id="b" width="90" height="90" rx="6"/>
        <filter id="a" width="115.6%" height="115.6%" x="-7.8%" y="-5.6%" filterUnits="objectBoundingBox">
            <feOffset dy="2" in="SourceAlpha" result="shadowOffsetOuter1"/>
            <feMorphology in="SourceAlpha" radius="1" result="shadowInner"/>
            <feOffset dy="2" in="shadowInner" result="shadowInner"/>
            <feComposite in="shadowOffsetOuter1" in2="shadowInner" operator="out" result="shadowOffsetOuter1"/>
            <feGaussianBlur in="shadowOffsetOuter1" result="shadowBlurOuter1" stdDeviation="2"/>
            <feColorMatrix in="shadowBlurOuter1" values="0 0 0 0 0.901960784 0 0 0 0 0.925490196 0 0 0 0 0.952941176 0 0 0 0.472792832 0"/>
        </filter>
    </defs>
    <g fill="none" fill-rule="evenodd">
        <path fill="#E6ECF3" stroke="#2553A8" stroke-width=".8" d="M24.4 20.269h49.2v38.314H24.4z"/>
        <path fill="#E6ECF3" stroke="#2553A8" stroke-width=".8" d="M29.166 19.752c-.203 2.439-.196 5.325.02 8.657.206 3.193 1.223 6.114 3.052 8.772 1.828-2.659 2.844-5.58 3.051-8.772.216-3.332.222-6.218.02-8.657a3.445 3.445 0 0 0-1.527-.352c-.466 0-.932.089-1.403.267l-.142.054-.142-.054a3.924 3.924 0 0 0-1.402-.267c-.535 0-1.042.117-1.527.352zm3.071 18.118h-.003l-.28-.205v-.082l.079-.11h.204v.397z"/>
        <path fill="#E6ECF3" stroke="#2553A8" stroke-width=".8" d="M32.229 37.689c-1.989 6.127-2.982 10.584-2.982 13.35v7.544h5.98V51.04c0-2.472-.999-6.932-2.998-13.35z"/>
        <path stroke="#92B6D5" stroke-linecap="round" stroke-linejoin="round" stroke-opacity=".436" d="M32.237 20.5v15M32.237 39.631v6.025"/>
        <g>
            <path fill="#E6ECF3" stroke="#2553A8" stroke-width=".8" d="M45.929 19.752c-.203 2.439-.197 5.325.02 8.657.206 3.193 1.223 6.114 3.052 8.772 1.828-2.659 2.844-5.58 3.05-8.772.217-3.332.223-6.218.02-8.657a3.445 3.445 0 0 0-1.527-.352c-.465 0-.932.089-1.402.267l-.142.054-.142-.054a3.924 3.924 0 0 0-1.402-.267c-.535 0-1.043.117-1.527.352zM49 37.87h-.004l-.28-.205v-.082l.08-.11H49v.397z"/>
            <path fill="#E6ECF3" stroke="#2553A8" stroke-width=".8" d="M48.992 37.689c-1.989 6.127-2.982 10.584-2.982 13.35v7.544h5.98V51.04c0-2.472-1-6.932-2.998-13.35z"/>
            <path stroke="#92B6D5" stroke-linecap="round" stroke-linejoin="round" stroke-opacity=".436" d="M49 20.5v15M49 39.631v6.025"/>
        </g>
        <g>
            <path fill="#E6ECF3" stroke="#2553A8" stroke-width=".8" d="M62.929 19.752c-.203 2.439-.197 5.325.02 8.657.206 3.193 1.223 6.114 3.052 8.772 1.828-2.659 2.844-5.58 3.05-8.772.217-3.332.223-6.218.02-8.657a3.445 3.445 0 0 0-1.527-.352c-.465 0-.932.089-1.402.267l-.142.054-.142-.054a3.924 3.924 0 0 0-1.402-.267c-.535 0-1.043.117-1.527.352zM66 37.87h-.004l-.28-.205v-.082l.08-.11H66v.397z"/>
            <path fill="#E6ECF3" stroke="#2553A8" stroke-width=".8" d="M65.992 37.689c-1.989 6.127-2.982 10.584-2.982 13.35v7.544h5.98V51.04c0-2.472-1-6.932-2.998-13.35z"/>
            <path stroke="#92B6D5" stroke-linecap="round" stroke-linejoin="round" stroke-opacity=".436" d="M66 20.5v15M66 39.631v6.025"/>
        </g>
        <g transform="translate(4 2)">
            <use fill="#000" filter="url(#a)" xlink:href="#b"/>
            <rect width="89" height="89" x=".5" y=".5" stroke="#2553A8" stroke-linejoin="square" rx="6"/>
        </g>
    </g>
</svg>
