<svg xmlns="http://www.w3.org/2000/svg" xmlns:xlink="http://www.w3.org/1999/xlink" width="98" height="98" viewBox="0 0 98 98">
    <defs>
        <rect id="b" width="90" height="90" rx="6"/>
        <filter id="a" width="115.6%" height="115.6%" x="-7.8%" y="-5.6%" filterUnits="objectBoundingBox">
            <feOffset dy="2" in="SourceAlpha" result="shadowOffsetOuter1"/>
            <feMorphology in="SourceAlpha" radius="1" result="shadowInner"/>
            <feOffset dy="2" in="shadowInner" result="shadowInner"/>
            <feComposite in="shadowOffsetOuter1" in2="shadowInner" operator="out" result="shadowOffsetOuter1"/>
            <feGaussianBlur in="shadowOffsetOuter1" result="shadowBlurOuter1" stdDeviation="2"/>
            <feColorMatrix in="shadowBlurOuter1" values="0 0 0 0 0.901960784 0 0 0 0 0.925490196 0 0 0 0 0.952941176 0 0 0 0.472792832 0"/>
        </filter>
    </defs>
    <g fill="none" fill-rule="evenodd">
        <g fill="#E6ECF3" stroke="#2553A8" stroke-width=".8">
            <path d="M24.4 19.755v22.217h2.836V19.755c-.293-.23-.76-.355-1.418-.355-.657 0-1.125.124-1.418.355zM46.218 19.755v22.217h2.837V19.755c-.293-.23-.762-.355-1.419-.355s-1.125.124-1.418.355zM35.31 19.755v22.217h2.835V19.755c-.293-.23-.76-.355-1.418-.355-.657 0-1.125.124-1.418.355zM57.127 19.755v22.217h2.837V19.755c-.293-.23-.762-.355-1.419-.355-.656 0-1.125.124-1.418.355zM29.855 19.755v22.217h2.836V19.755c-.293-.23-.761-.355-1.418-.355-.657 0-1.125.124-1.418.355zM51.673 19.755v22.217h2.836V19.755c-.293-.23-.761-.355-1.418-.355-.657 0-1.125.124-1.418.355zM40.764 19.755v22.217H43.6V19.755c-.293-.23-.761-.355-1.418-.355-.657 0-1.125.124-1.418.355zM62.582 19.755v22.217h2.836V19.755c-.293-.23-.761-.355-1.418-.355-.657 0-1.125.124-1.418.355zM68.036 19.755v22.217h2.837V19.755c-.293-.23-.762-.355-1.418-.355-.657 0-1.126.124-1.419.355z"/>
            <path d="M27.127 19.755v22.217h2.837V19.755c-.293-.23-.762-.355-1.419-.355-.656 0-1.125.124-1.418.355zM48.945 19.755v22.217h2.837V19.755c-.293-.23-.761-.355-1.418-.355-.657 0-1.126.124-1.419.355zM38.036 19.755v22.217h2.837V19.755c-.293-.23-.762-.355-1.418-.355-.657 0-1.126.124-1.419.355zM59.855 19.755v22.217h2.836V19.755c-.293-.23-.761-.355-1.418-.355-.657 0-1.125.124-1.418.355zM32.582 19.755v22.217h2.836V19.755c-.293-.23-.761-.355-1.418-.355-.657 0-1.125.124-1.418.355zM54.4 19.755v22.217h2.836V19.755c-.293-.23-.76-.355-1.418-.355-.657 0-1.125.124-1.418.355zM43.49 19.755v22.217h2.837V19.755c-.293-.23-.761-.355-1.418-.355-.657 0-1.125.124-1.418.355zM65.31 19.755v22.217h2.835V19.755c-.293-.23-.76-.355-1.418-.355-.657 0-1.125.124-1.418.355zM70.764 19.755v22.217H73.6V19.755c-.293-.23-.761-.355-1.418-.355-.657 0-1.125.124-1.418.355z"/>
            <path d="M24.4 41.906h49.2v16.512H24.4z"/>
        </g>
        <g transform="translate(4 2)">
            <use fill="#000" filter="url(#a)" xlink:href="#b"/>
            <rect width="89" height="89" x=".5" y=".5" stroke="#2553A8" stroke-linejoin="square" rx="6"/>
        </g>
        <g stroke="#B2CBE4" stroke-linecap="round" stroke-opacity=".501">
            <path d="M32.909 42.433v7.358M46.545 42.433v7.358M56.545 42.433v12.335M65.636 42.433v7.358"/>
            <path stroke-width=".7" d="M34.727 42.433v9.522M48.364 42.433v4.761M44.727 42.433v4.761"/>
        </g>
    </g>
</svg>
